<?xml version="1.0" encoding="utf-8"?>
<!-- Generator: Adobe Illustrator 16.0.3, SVG Export Plug-In . SVG Version: 6.00 Build 0)  -->
<!DOCTYPE svg PUBLIC "-//W3C//DTD SVG 1.1//EN" "http://www.w3.org/Graphics/SVG/1.1/DTD/svg11.dtd">
<svg version="1.1" id="Layer_1" xmlns="http://www.w3.org/2000/svg" xmlns:xlink="http://www.w3.org/1999/xlink" x="0px" y="0px"
	 width="170px" height="170px" viewBox="0 0 170 170" enable-background="new 0 0 170 170" xml:space="preserve">
<path fill="#93003A" d="M169.5,85c0,46.67-37.839,84.5-84.5,84.5S0.5,131.67,0.5,85S38.339,0.5,85,0.5S169.5,38.33,169.5,85z"/>
<g>
	<g>
		<path fill="#FFFFFF" d="M143.514,87.688H23.609c-1.381,0-2.5-1.119-2.5-2.5c0-1.381,1.119-2.5,2.5-2.5h119.905
			c1.381,0,2.5,1.119,2.5,2.5C146.014,86.568,144.895,87.688,143.514,87.688z"/>
	</g>
	<g>
		<circle fill="#93003A" cx="81.221" cy="85.188" r="8.418"/>
		<path fill="#FFFFFF" d="M81.221,96.105c-6.02,0-10.918-4.897-10.918-10.917S75.201,74.27,81.221,74.27s10.917,4.898,10.917,10.918
			S87.241,96.105,81.221,96.105z M81.221,79.27c-3.263,0-5.918,2.655-5.918,5.918s2.655,5.917,5.918,5.917
			c3.263,0,5.917-2.654,5.917-5.917S84.484,79.27,81.221,79.27z"/>
	</g>
	<g>
		<path fill="#FFFFFF" d="M132.175,100.749c-0.637,0-1.272-0.241-1.761-0.726c-0.98-0.973-0.986-2.556-0.016-3.535L141.794,85
			l-11.396-11.489c-0.972-0.979-0.965-2.563,0.016-3.535s2.563-0.966,3.536,0.015L148.835,85l-14.885,15.01
			C133.461,100.502,132.818,100.749,132.175,100.749z"/>
	</g>
</g>
</svg>
